<svg xmlns:xlink="http://www.w3.org/1999/xlink" width="14" height="14" viewBox="0 0 16 16" fill="none" xmlns="http://www.w3.org/2000/svg" class="css-qop4f"><path d="M13.0907 3.34852C12.1271 2.90502 11.1099 2.59039 10.0649 2.41266C9.92186 2.66963 9.79252 2.93402 9.67726 3.20472C8.56419 3.03611 7.43226 3.03611 6.3192 3.20472C6.2039 2.93405 6.07452 2.66966 5.93159 2.41266C4.88597 2.59189 3.86802 2.90727 2.90344 3.35084C0.988498 6.19899 0.469384 8.97644 0.728938 11.7144C1.85038 12.5473 3.10559 13.1808 4.44001 13.5872C4.74048 13.181 5.00636 12.75 5.23483 12.2988C4.80089 12.136 4.38206 11.9349 3.98319 11.6982C4.08817 11.6216 4.19084 11.5428 4.29004 11.4662C5.45066 12.0149 6.71739 12.2994 7.99999 12.2994C9.28252 12.2994 10.5493 12.0149 11.7099 11.4662C11.8103 11.5486 11.9129 11.6274 12.0167 11.6982C11.6171 11.9353 11.1975 12.1367 10.7628 12.3C10.991 12.751 11.2569 13.1816 11.5576 13.5872C12.8932 13.1824 14.1493 12.5492 15.271 11.7156C15.5755 8.54037 14.7507 5.78847 13.0907 3.34852ZM5.5636 10.0306C4.8403 10.0306 4.24275 9.37071 4.24275 8.55891C4.24275 7.74717 4.81954 7.08151 5.56129 7.08151C6.30304 7.08151 6.89599 7.74717 6.88332 8.55891C6.87059 9.37071 6.30074 10.0306 5.5636 10.0306ZM10.4363 10.0306C9.71186 10.0306 9.11666 9.37071 9.11666 8.55891C9.11666 7.74717 9.69339 7.08151 10.4363 7.08151C11.1793 7.08151 11.7676 7.74717 11.7549 8.55891C11.7422 9.37071 11.1735 10.0306 10.4363 10.0306Z" fill="#A1A1AA"></path></svg>